<svg width="165" height="181" viewBox="0 0 165 181" fill="none" xmlns="http://www.w3.org/2000/svg">
<path d="M165.002 181.004L165.002 0.00390625L0.00245667 0.00390625L0.00245667 181.004L165.002 181.004Z" fill="#E7411B"/>
<path d="M35.856 162.385L38.5142 163.14L38.3201 164.533H32.771L26.1353 154.529L28.4054 151.956L35.856 162.385ZM24.098 151.975V154.781L35.5262 141.778L37.9709 140.984L37.7769 139.591H30.3457L30.1516 140.984L32.6546 141.739L24.098 151.975ZM22.7204 141.739L25.0293 140.965L24.8159 139.572H16.7056L16.4922 140.984L19.1698 141.758V162.405L16.4922 163.179L16.7056 164.553H24.8159L25.0293 163.159L22.7204 162.405V141.739Z" fill="white"/>
<path d="M47.2066 146.712V148.686C45.926 148.879 44.8394 149.595 43.9857 150.756C43.1126 151.956 42.6663 153.659 42.6663 155.787C42.6663 157.954 43.1126 159.657 44.0051 160.857C44.8782 162.037 45.9454 162.753 47.226 162.927V164.862C45.9842 164.785 44.8394 164.514 43.8693 164.05C42.8798 163.585 42.0067 162.947 41.2694 162.153C40.5515 161.379 39.9694 160.45 39.5619 159.406C39.1545 158.361 38.941 157.2 38.941 155.961C38.941 154.665 39.1545 153.446 39.5425 152.343C39.95 151.24 40.5321 150.272 41.25 149.498C41.9679 148.705 42.841 148.047 43.8499 147.563C44.82 147.06 45.9648 146.77 47.2066 146.712ZM54.5408 149.421C53.8035 148.647 52.9303 148.008 51.9214 147.525C50.9319 147.06 49.8259 146.77 48.5841 146.712V148.686C49.2826 148.802 49.8453 149.034 50.3498 149.363C50.8931 149.711 51.3781 150.176 51.7856 150.775C52.193 151.375 52.5229 152.091 52.7751 152.923C53.0274 153.755 53.1438 154.723 53.1438 155.787C53.1438 156.89 53.0274 157.858 52.7751 158.709C52.5229 159.541 52.193 160.276 51.7856 160.857C51.3781 161.437 50.8931 161.921 50.3498 162.269C49.8259 162.598 49.2632 162.83 48.5841 162.927L48.6035 164.862C49.8453 164.785 50.9513 164.495 51.9408 164.03C52.9497 163.546 53.8229 162.889 54.5602 162.095C55.2781 161.302 55.8601 160.354 56.2482 159.251C56.6556 158.167 56.8497 156.929 56.8497 155.613C56.8497 154.394 56.6556 153.233 56.2482 152.188C55.8213 151.124 55.2587 150.195 54.5408 149.421Z" fill="white"/>
<path d="M75.7479 162.56L78.4254 163.334L78.2314 164.533H70.4315L70.2375 163.334L72.3718 162.56V152.42C72.3718 151.298 72.1002 150.427 71.5375 149.847C70.9942 149.266 70.2181 148.976 69.2674 148.976C68.6465 148.976 68.0644 149.092 67.5211 149.344C66.9391 149.614 66.4734 149.866 66.1047 150.176V148.202C66.6092 147.815 67.1137 147.486 67.851 147.157C68.5495 146.847 69.3838 146.693 70.3151 146.693C71.9449 146.693 73.2643 147.215 74.2344 148.221C75.224 149.227 75.709 150.659 75.709 152.44V162.56H75.7479ZM64.7466 146.847H62.3212L58.1885 148.279L58.3825 149.363H61.3899V162.56L58.7123 163.334L58.9258 164.533H67.2301L67.4241 163.334L64.7466 162.56V146.847Z" fill="white"/>
<path d="M107.355 162.269L110.032 163.353L109.838 164.553H101.534L101.321 163.353L103.998 162.269V149.382H100.991L100.797 148.298L104.929 146.867H107.355V162.269ZM108.732 147.97V150.156H113.913V146.673H111.682L108.732 147.97Z" fill="white"/>
<path d="M122.78 162.269L125.457 163.353L125.263 164.553H116.959L116.746 163.353L119.423 162.269V149.382H116.416L116.222 148.299L120.355 146.867H122.78V162.269ZM121.092 144.003C121.732 144.003 122.256 143.79 122.683 143.364C123.11 142.939 123.323 142.416 123.323 141.778C123.323 141.139 123.11 140.617 122.683 140.191C122.256 139.765 121.732 139.552 121.092 139.552C120.452 139.552 119.928 139.765 119.501 140.191C119.074 140.617 118.88 141.139 118.88 141.778C118.88 142.416 119.093 142.939 119.52 143.364C119.928 143.79 120.452 144.003 121.092 144.003Z" fill="white"/>
<path d="M145.733 162.192L145.927 163.256L141.756 164.707H139.35V139.997H136.168L135.974 138.914L140.281 137.501H142.706V162.211H145.733V162.192ZM136.226 146.925C135.624 146.751 134.945 146.673 134.169 146.673C133.044 146.673 131.977 146.905 131.007 147.35C130.017 147.795 129.144 148.434 128.387 149.247C127.631 150.059 127.029 151.027 126.602 152.169C126.156 153.291 125.943 154.568 125.943 155.942C125.943 157.374 126.137 158.651 126.525 159.754C126.913 160.857 127.436 161.805 128.116 162.56C128.775 163.314 129.59 163.895 130.502 164.301C131.414 164.688 132.423 164.882 133.49 164.882C134.402 164.882 135.217 164.727 135.935 164.436C136.595 164.166 137.39 163.701 137.953 163.256L137.992 163.237V161.128L137.856 161.244C137.487 161.553 136.847 161.979 136.304 162.231C135.78 162.463 135.198 162.598 134.577 162.598C133.936 162.598 133.316 162.463 132.714 162.172C132.113 161.882 131.608 161.457 131.162 160.895C130.716 160.334 130.366 159.618 130.095 158.767C129.823 157.916 129.687 156.909 129.687 155.768C129.687 154.587 129.823 153.542 130.095 152.672C130.366 151.801 130.716 151.066 131.162 150.504C131.608 149.943 132.132 149.518 132.714 149.227C133.316 148.937 133.936 148.802 134.577 148.802C135.818 148.802 137.041 149.247 137.875 150.001L138.011 150.137V147.641L137.972 147.621C137.487 147.35 136.808 147.079 136.226 146.925Z" fill="white"/>
<path d="M151.069 146.596L150.273 145.106C150.584 145.067 150.875 144.99 151.146 144.893L151.787 145.996L152.388 146.228L152.33 146.576H151.069V146.596ZM146.761 142.59C146.956 142.165 147.227 141.797 147.538 141.487C147.867 141.178 148.236 140.926 148.663 140.752C149.09 140.578 149.555 140.481 150.041 140.481C150.526 140.481 150.991 140.578 151.418 140.752C151.845 140.926 152.233 141.178 152.543 141.487C152.873 141.797 153.126 142.165 153.339 142.59C153.533 143.016 153.649 143.461 153.688 143.964H154.348C154.309 143.403 154.193 142.861 153.94 142.377C153.708 141.894 153.397 141.449 153.009 141.081C152.621 140.713 152.175 140.423 151.67 140.21C151.166 139.997 150.623 139.901 150.041 139.901C149.458 139.901 148.915 140.017 148.411 140.21C147.906 140.423 147.46 140.713 147.072 141.081C146.684 141.449 146.373 141.874 146.141 142.377C145.908 142.881 145.772 143.403 145.733 143.964H146.412C146.432 143.48 146.548 143.016 146.761 142.59ZM151.903 143.248C151.903 142.822 151.748 142.494 151.438 142.223C151.127 141.971 150.623 141.816 149.924 141.797V142.339C150.254 142.358 150.506 142.435 150.681 142.61C150.855 142.764 150.933 142.977 150.933 143.248C150.933 143.519 150.855 143.732 150.681 143.887C150.506 144.061 150.254 144.138 149.924 144.138V144.68C150.623 144.68 151.127 144.545 151.438 144.274C151.748 144.003 151.903 143.655 151.903 143.248ZM147.945 146.228L148.003 146.576H149.924L149.982 146.228L149.439 145.996V141.816H148.003L147.945 142.184L148.547 142.416V145.996L147.945 146.228ZM153.339 145.822C153.145 146.247 152.873 146.615 152.543 146.925C152.214 147.234 151.845 147.486 151.418 147.66C150.991 147.834 150.526 147.931 150.041 147.931C149.555 147.931 149.09 147.853 148.663 147.66C148.236 147.486 147.867 147.234 147.538 146.925C147.208 146.615 146.956 146.247 146.761 145.822C146.567 145.396 146.451 144.951 146.412 144.448H145.733C145.772 145.009 145.908 145.551 146.141 146.035C146.373 146.518 146.684 146.963 147.072 147.312C147.46 147.679 147.906 147.95 148.411 148.163C148.915 148.376 149.458 148.473 150.041 148.473C150.623 148.473 151.166 148.357 151.67 148.163C152.175 147.95 152.621 147.66 153.009 147.312C153.397 146.944 153.708 146.518 153.94 146.035C154.173 145.551 154.309 145.009 154.348 144.448H153.688C153.649 144.932 153.533 145.396 153.339 145.822Z" fill="white"/>
<path d="M95.7907 148.995L87.6998 158.244V155.613L93.443 148.956L91.0953 148.221L91.2893 147.002H98.0026L98.1967 148.221L95.7907 148.995ZM91.5804 155.981L89.4267 158.457L93.6564 164.533H98.3907L98.5847 163.334L96.2564 162.54L91.5804 155.981ZM86.3222 137.482H83.8969L79.7642 138.914L79.9582 139.997H82.9656V162.56L80.288 163.334L80.5015 164.533H88.2625L88.4565 163.334L86.3222 162.56V137.482Z" fill="white"/>
<path d="M16.4922 69.7955L78.1149 123.143V16.4475L16.4922 69.7955Z" fill="white"/>
<path d="M86.3417 69.8535V16.4475H147.964L86.3417 69.8535ZM86.3417 123.143H147.964L86.3417 69.8535V123.143Z" fill="white"/>
</svg>
