<svg width="148" height="89" viewBox="0 0 148 89" fill="none" xmlns="http://www.w3.org/2000/svg">
<g filter="url(#filter0_b)">
<path d="M0 13.2896V0L9.45068 11.4692C10.4005 12.6219 11.8159 13.2896 13.3094 13.2896H138C143.523 13.2896 148 17.7667 148 23.2896V79C148 84.5229 143.523 89 138 89H10C4.47716 89 0 84.5229 0 79V13.2896Z" fill="white" fill-opacity="0.6"/>
<path d="M0.5 13.2896V1.39305L9.0648 11.7872C10.1096 13.0551 11.6665 13.7896 13.3094 13.7896H138C143.247 13.7896 147.5 18.0429 147.5 23.2896V79C147.5 84.2467 143.247 88.5 138 88.5H10C4.7533 88.5 0.5 84.2467 0.5 79V13.2896Z" stroke="url(#paint0_linear)"/>
</g>
<defs>
<filter id="filter0_b" x="-40" y="-40" width="228" height="169" filterUnits="userSpaceOnUse" color-interpolation-filters="sRGB">
<feFlood flood-opacity="0" result="BackgroundImageFix"/>
<feGaussianBlur in="BackgroundImage" stdDeviation="20"/>
<feComposite in2="SourceAlpha" operator="in" result="effect1_backgroundBlur"/>
<feBlend mode="normal" in="SourceGraphic" in2="effect1_backgroundBlur" result="shape"/>
</filter>
<linearGradient id="paint0_linear" x1="83.1412" y1="101.258" x2="65.357" y2="40.2016" gradientUnits="userSpaceOnUse">
<stop stop-color="#8E8E8E" stop-opacity="0.25"/>
<stop offset="1" stop-color="white" stop-opacity="0.2"/>
</linearGradient>
</defs>
</svg>
